PathFileType	4	(X/Y/Z)	pose_F01_0-87.trc
DataRate	CameraRate	NumFrames	NumMarkers	Units	OrigDataRate	OrigDataStartFrame	OrigNumFrames
30	30	10	21	m	30	49	87
Frame#	Time	CHip			RHip			RKnee			RAnkle			RBigToe			RSmallToe			RHeel			LHip			LKnee			LAnkle			LBigToe			LSmallToe			LHeel			Neck			Nose			RShoulder			RElbow			RWrist			LShoulder			LElbow			LWrist			
		X1	Y1	Z1	X2	Y2	Z2	X3	Y3	Z3	X4	Y4	Z4	X5	Y5	Z5	X6	Y6	Z6	X7	Y7	Z7	X8	Y8	Z8	X9	Y9	Z9	X10	Y10	Z10	X11	Y11	Z11	X12	Y12	Z12	X13	Y13	Z13	X14	Y14	Z14	X15	Y15	Z15	X16	Y16	Z16	X17	Y17	Z17	X18	Y18	Z18	X19	Y19	Z19	X20	Y20	Z20	X21	Y21	Z21	
49	1.6333333333333333	-0.17531078431038846	1.839401898908837	-0.5251622547228213	-0.18894428697012608	1.835461718546772	-0.4878535581477785	-0.20340286761861837	1.7267406139227557	-0.4540724366983938				-0.23013690471919018	1.5431238589551985	-0.5940767043332305							-0.15965123464210965	1.8413935924223919	-0.5560210478444224	-0.1724853706300677	1.7250432275236713	-0.524106806339667	-0.1760902489017364	1.6143574871624027	-0.5083302728349448	-0.17554360819442327	1.5944713959472994	-0.577348419591668	-0.17055229641214947	1.6047742235721183	-0.5794330285849636	-0.19524611986847998	1.6072614604297573	-0.5205070388495587	-1.7574063808738962	1.8911666063738086	1.2182523517366883	-0.15909497300586736	2.035093982719916	-0.6367425737122212	-0.19766052296557043	1.9790294977447018	-0.4931207657034567	-0.20808387900505979	1.9020808155012314	-0.47498472624103866	-0.21203067405021717	1.8347114779719933	-0.492862134011298	-1.6796476291113607	1.8920113828326257	1.105601310555861	-0.1479805487856771	1.914560967300588	-0.5922381669113769	-0.14604032962857177	1.856378107019939	-0.6163451493154322
50	1.6666666666666667	-0.17534684141095128	1.839265258829003	-0.5251303927049071	-0.18896814111200247	1.835421518922499	-0.48782682749948286	-0.20340286761861837	1.7267406139227557	-0.4540724366983938				-0.23013690471919018	1.5431238589551985	-0.5940767043332305							-0.15943437463356833	1.8419476599844422	-0.5560420254885536	-0.17434512788533912	1.7271892587214324	-0.5221916331308647	-0.17587607795324348	1.6160310960003033	-0.5088323635565091	-0.17600092551711952	1.5969287280328022	-0.5770869371383109	-0.17097389428414486	1.6072810688998955	-0.5791550550097286	-0.19524611986847998	1.6072614604297573	-0.5205070388495587	-1.744190670351445	1.8910501142112117	1.1969284730965633	-0.16342169487768357	2.0411820623394243	-0.6339086924225238	-0.19771290149764342	1.9791348756014178	-0.4930976651699616	-0.20844274525783685	1.9034204749382677	-0.47553695644994887	-0.21247284048157603	1.837225566988469	-0.49322962919267266	-1.6673786166511355	1.8918556669572282	1.085807999785799	-0.14944058291539117	1.914008262409161	-0.593549433707949	-0.14763989519295864	1.8547651999243373	-0.6176772206041722
51	1.7	-0.17740975243968973	1.8394589593825852	-0.5227928397816798	-0.1930224857221958	1.8328390506823757	-0.4829481144190516	-0.20340286761861837	1.7267406139227557	-0.4540724366983938				-0.23013690471919018	1.5431238589551985	-0.5940767043332305							-0.16161991954393926	1.840777430668875	-0.553552000183631	-0.17444992466483947	1.7281583954899291	-0.522102670871137	-0.17608134719889712	1.614480555515607	-0.5083251192065065	-0.17599109213613215	1.5969874478239405	-0.577125557795641	-0.17094690670868568	1.6072093750798453	-0.5791988082192909	-0.19524611986847998	1.6072614604297573	-0.5205070388495587	-1.7461659626357915	1.8911514923698216	1.1991558238181141	-0.16680584316035577	2.0422948904746336	-0.6267109191975377	-0.1996833552503734	1.9791445545411808	-0.49092598131479087	-0.21031870008992204	1.902085394210903	-0.47314707015817986	-0.21406382840580912	1.8350485549019475	-0.49953008078148065	-1.6822274657100675	1.8919586534952981	1.1083229673361763	-0.15090061704510524	1.913455557517734	-0.594860700504521	-0.14923946075734554	1.8531522928287358	-0.6190092918929121
52	1.7333333333333334	-0.18231841548038574	1.837465119643832	-0.5216225693189226	-0.1968357065928581	1.8333296206489815	-0.47865461740782606	-0.20340286761861837	1.7267406139227557	-0.4540724366983938				-0.23013690471919018	1.5431238589551985	-0.5940767043332305							-0.16257498183384964	1.8391666173533632	-0.5568118281985461	-0.1747315189661859	1.726202509688294	-0.521674779008717	-0.17805406371856763	1.6142153057285817	-0.5062023362155332	-0.1740257884028975	1.5949143408604485	-0.5788179234108671	-0.17072374095346773	1.6057936190563922	-0.5795234413084726	-0.19524611986847998	1.6072614604297573	-0.5205070388495587	-1.7352195239555301	1.8910429735720584	1.1804513310167581	-0.1680934154977145	2.043043954551193	-0.6211404569424618	-0.1996948681783231	1.9791425717728188	-0.4907475433795092	-0.2122231750656074	1.905218050393246	-0.4712203267820257	-0.21870918926182148	1.8406360717198726	-0.49902107548621394	-1.6570972824019332	1.8918063620975996	1.0677492997752438	-0.15236065117481928	1.912902852626307	-0.5961719673010931	-0.1508390263217324	1.8515393857331341	-0.6203413631816521
53	1.7666666666666666	-0.18365395555922023	1.8362773679290463	-0.5158587727745305	-0.19902989837374102	1.8324941429893928	-0.476053126397676	-0.20340286761861837	1.7267406139227557	-0.4540724366983938				-0.23013690471919018	1.5431238589551985	-0.5940767043332305							-0.1647660472782458	1.837543426697294	-0.5542793948225054	-0.17637883134007193	1.7237107727516505	-0.5195745296764622	-0.17802130398178098	1.6135897319468087	-0.5063859771826452	-0.17628671067459672	1.5958772144971154	-0.57662080059468	-0.17110585544022813	1.6075939636624874	-0.5790996059274874	-0.19524611986847998	1.6072614604297573	-0.5205070388495587	-1.735833821298672	1.8910076372329536	1.1809251551391529	-0.17268010967388062	2.043551888210256	-0.608538183453394	-0.20167506922884157	1.9812946614810178	-0.4888364957595456	-0.21219554145155978	1.903829518359452	-0.47072405765468395	-0.21812417437281348	1.8355175657099343	-0.4951053722414941	-1.6309444427704691	1.8921942919718904	1.0257977211640568	-0.15382068530453336	1.91235014773488	-0.5974832340976652	-0.1524385918861193	1.8499264786375325	-0.6216734344703921
54	1.8	-0.18652096985616665	1.8351646309707152	-0.5167696310157744	-0.20092909078417184	1.8343756865514023	-0.4740887779567225	-0.20340286761861837	1.7267406139227557	-0.4540724366983938				-0.23013690471919018	1.5431238589551985	-0.5940767043332305							-0.1655155311318505	1.8385275243571992	-0.5576159080350068	-0.1762616719196045	1.7226135390280932	-0.5196454676146568	-0.1778723230870772	1.6130413027722712	-0.506385121155853	-0.1769942510060972	1.5945386750157386	-0.5800911599528829	-0.1714903228183882	1.6045537698378733	-0.5829287505636997	-0.19524611986847998	1.6072614604297573	-0.5205070388495587	-1.7377880606415126	1.891020443260338	1.183091475236919	-0.17684321920339172	2.0437592316717694	-0.6038687338021997	-0.20556723156316623	1.9800522759388093	-0.4838532352856767	-0.21582881851471808	1.9024120322064562	-0.4657601286031855	-0.22513426026704764	1.83610210498565	-0.5003657218822335	-1.6322626356759515	1.8903023771240268	1.0265445619234919	-0.1552807194342474	1.911797442843453	-0.5987945008942374	-0.15403815745050617	1.848313571541931	-0.623005505759132
55	1.8333333333333333	-0.1875235138964747	1.8366240188198766	-0.520449966418986	-0.2011652858622531	1.8356259170237084	-0.47427184369738656	-0.20340286761861837	1.7267406139227557	-0.4540724366983938				-0.23013690471919018	1.5431238589551985	-0.5940767043332305							-0.17399899176912895	1.8390308407535134	-0.5698115762858043	-0.17772050062873404	1.7260897672184967	-0.5226616372701022	-0.17780395067321414	1.6139783194292026	-0.5064998250599195	-0.17586699462299857	1.5934717670131653	-0.5767826040024088	-0.170475721185571	1.6040279006384939	-0.5793615018364089	-0.19524611986847998	1.6072614604297573	-0.5205070388495587	-1.7386240617185271	1.890972453201534	1.1839653397284133	-0.17814228314887648	2.0435004992058303	-0.5984709957706211	-0.2086221721518821	1.9815632629840363	-0.476542574329277	-0.2169584463047011	1.9034887554748967	-0.4603364551245022	-0.2208659284710737	1.840084329239441	-0.46662196134305295	-1.6074215056289938	1.8904184223264937	0.9863684986277703	-0.15674075356396147	1.911244737952026	-0.6001057676908095	-0.15563772301489306	1.8467006644463293	-0.6243375770478721
56	1.8666666666666667	-0.19132262431536926	1.840271622138178	-0.5165433928340509	-0.204784840343156	1.8375390015829183	-0.4701790880575462	-0.2144240074201168	1.7181514291910334	-0.44534669161961216				-0.23013690471919018	1.5431238589551985	-0.5940767043332305							-0.1761103197903347	1.8411895010654284	-0.5678269580735422	-0.17768425653088438	1.728090614501929	-0.5229336042508511	-0.1777355782593511	1.614915336086134	-0.506614528963986	-0.1762232016314792	1.5947506370703148	-0.5767047064945832	-0.17293823956971377	1.6059361297150754	-0.5771502278940116	-0.19524611986847998	1.6072614604297573	-0.5205070388495587	-1.73747709358182	1.8888818093830797	1.1821273756357409	-0.18015873836105756	2.0443892486081667	-0.5959799358763516	-0.21048793617492315	1.980214105545021	-0.46537683520629264	-0.22102747202249015	1.8983583793917644	-0.44675119241993494	-0.2196479732964984	1.8292349172566384	-0.4533321627919314	-1.5914675967417333	1.8866563988172163	0.9613158745430045	-0.156756863261837	1.9058005581058226	-0.6003647307927814	-0.15543017556461639	1.8418370093133645	-0.6244575534893836
57	1.9	-0.19230449114440437	1.8430959093822021	-0.5198840327372581	-0.20775689344059525	1.839830975667605	-0.4714106863023134	-0.21561510937397493	1.7166848371474328	-0.4431035260324188				-0.23013690471919018	1.5431238589551985	-0.5940767043332305							-0.17802550665576464	1.8452639749321635	-0.5661395453832399	-0.17739186097734128	1.7284193927389986	-0.5234680754860374	-0.17767879997163938	1.6147620624326928	-0.5065552223353338	-0.17585761124687566	1.593434495573912	-0.5767378003475804	-0.17046838202223896	1.6040518413671931	-0.579334892183572	-0.19524611986847998	1.6072614604297573	-0.5205070388495587	-1.7404347380282243	1.8888053043035158	1.1854948274632426	-0.183451065315947	2.043936457778399	-0.588634960389765	-0.21266311779507283	1.9784961427507661	-0.4630473743817721	-0.22129774877779207	1.902628528587597	-0.4299407805841333	-0.2279584996893294	1.836070843279155	-0.4449385458599481	-1.6013928247570182	1.890311828114961	0.9733094894839558	-0.15885590493271143	1.906513743390069	-0.5981837940151838	-0.15342740587111683	1.8468200611942533	-0.6273418088602792
58	1.9333333333333333	-0.19437999652817337	1.8402674829517527	-0.5173004195460931	-0.21110380422632546	1.8373132073596081	-0.46331085930063254	-0.21680621132783306	1.7152182451038323	-0.4408603604452255				-0.23013690471919018	1.5431238589551985	-0.5940767043332305							-0.18014137982847572	1.842191108853925	-0.5637343863127299	-0.17958548397574076	1.7265575439983694	-0.5209321746920886	-0.1778391719654664	1.612884997357956	-0.5060275380928222	-0.1758812852356813	1.5933284154353486	-0.5766831957494145	-0.17249353266917977	1.604012779362319	-0.5771829475313542	-0.19524611986847998	1.6072614604297573	-0.5205070388495587	-1.7423906866492702	1.8886858109491773	1.187751456825307	-0.18761249165216798	2.043382871574869	-0.5840527141432931	-0.21362443392708616	1.977411736057424	-0.4488841421831222	-0.2228881439900012	1.8967577654519767	-0.4265027804956554	-0.2309523122550843	1.8292776956911594	-0.43947830694109913	-1.5994044070832398	1.886424502920022	0.9695855449049745	-0.15965325207283435	1.9052227856280606	-0.6013977072169325	-0.15601099750041938	1.845441045307247	-0.6284037595087567
